<svg width="1001" height="973" viewBox="0 0 1001 973" fill="none" xmlns="http://www.w3.org/2000/svg">
<path d="M0 954.653L1000.36 955.349" stroke="#F2ACBF" stroke-opacity="0.25" stroke-width="2.5" stroke-miterlimit="10"/>
<path d="M0.0269165 915.622L1000.39 916.318" stroke="#F2ACBF" stroke-opacity="0.25" stroke-width="2.5" stroke-miterlimit="10"/>
<path d="M0.0530701 876.591L1000.41 877.286" stroke="#F2ACBF" stroke-opacity="0.25" stroke-width="2.5" stroke-miterlimit="10"/>
<path d="M0.0800781 837.56L1000.44 838.257" stroke="#F2ACBF" stroke-opacity="0.25" stroke-width="2.5" stroke-miterlimit="10"/>
<path d="M0.10611 798.529L1000.47 799.224" stroke="#F2ACBF" stroke-opacity="0.25" stroke-width="2.5" stroke-miterlimit="10"/>
<path d="M0.133118 759.498L1000.49 760.194" stroke="#F2ACBF" stroke-opacity="0.25" stroke-width="2.5" stroke-miterlimit="10"/>
<path d="M0.160217 720.467L1000.52 721.163" stroke="#F2ACBF" stroke-opacity="0.25" stroke-width="2.5" stroke-miterlimit="10"/>
<path d="M0.186249 681.436L1000.55 682.131" stroke="#F2ACBF" stroke-opacity="0.25" stroke-width="2.5" stroke-miterlimit="10"/>
<path d="M0.213318 642.405L1000.57 643.101" stroke="#F2ACBF" stroke-opacity="0.25" stroke-width="2.5" stroke-miterlimit="10"/>
<path d="M0.239319 603.374L1000.6 604.069" stroke="#F2ACBF" stroke-opacity="0.25" stroke-width="2.5" stroke-miterlimit="10"/>
<path d="M0.266327 564.342L1000.63 565.039" stroke="#F2ACBF" stroke-opacity="0.25" stroke-width="2.5" stroke-miterlimit="10"/>
<path d="M0.292358 525.312L1000.65 526.008" stroke="#F2ACBF" stroke-opacity="0.25" stroke-width="2.5" stroke-miterlimit="10"/>
<path d="M0.319366 486.281L1000.68 486.976" stroke="#F2ACBF" stroke-opacity="0.25" stroke-width="2.5" stroke-miterlimit="10"/>
<path d="M0.346375 447.25L1000.71 447.946" stroke="#F2ACBF" stroke-opacity="0.25" stroke-width="2.5" stroke-miterlimit="10"/>
<path d="M0.372406 408.219L1000.73 408.914" stroke="#F2ACBF" stroke-opacity="0.25" stroke-width="2.5" stroke-miterlimit="10"/>
<path d="M0.399567 369.188L1000.76 369.884" stroke="#F2ACBF" stroke-opacity="0.25" stroke-width="2.5" stroke-miterlimit="10"/>
<path d="M0.426544 330.157L1000.79 330.853" stroke="#F2ACBF" stroke-opacity="0.25" stroke-width="2.5" stroke-miterlimit="10"/>
<path d="M0.452576 291.125L1000.81 291.822" stroke="#F2ACBF" stroke-opacity="0.25" stroke-width="2.5" stroke-miterlimit="10"/>
<path d="M0.479584 252.095L1000.84 252.791" stroke="#F2ACBF" stroke-opacity="0.25" stroke-width="2.5" stroke-miterlimit="10"/>
<path d="M0.505615 213.064L1000.87 213.759" stroke="#F2ACBF" stroke-opacity="0.25" stroke-width="2.5" stroke-miterlimit="10"/>
<path d="M0.532654 174.033L1000.89 174.73" stroke="#F2ACBF" stroke-opacity="0.25" stroke-width="2.5" stroke-miterlimit="10"/>
<path d="M0.558655 135.002L1000.92 135.697" stroke="#F2ACBF" stroke-opacity="0.25" stroke-width="2.5" stroke-miterlimit="10"/>
<path d="M0.585693 95.9707L1000.95 96.6662" stroke="#F2ACBF" stroke-opacity="0.25" stroke-width="2.5" stroke-miterlimit="10"/>
<path d="M0.612671 56.9402L1000.97 57.6357" stroke="#F2ACBF" stroke-opacity="0.25" stroke-width="2.5" stroke-miterlimit="10"/>
<path d="M0.638702 17.9087L1001 18.6042" stroke="#F2ACBF" stroke-opacity="0.25" stroke-width="2.5" stroke-miterlimit="10"/>
<path d="M18.4822 0L17.7667 972.379" stroke="#F2ACBF" stroke-opacity="0.25" stroke-width="2.5" stroke-miterlimit="10"/>
<path d="M58.6745 0.0251465L57.959 972.404" stroke="#F2ACBF" stroke-opacity="0.25" stroke-width="2.5" stroke-miterlimit="10"/>
<path d="M98.8656 0.0515137L98.1501 972.431" stroke="#F2ACBF" stroke-opacity="0.25" stroke-width="2.5" stroke-miterlimit="10"/>
<path d="M139.058 0.0776367L138.342 972.457" stroke="#F2ACBF" stroke-opacity="0.25" stroke-width="2.5" stroke-miterlimit="10"/>
<path d="M179.25 0.103271L178.535 972.482" stroke="#F2ACBF" stroke-opacity="0.25" stroke-width="2.5" stroke-miterlimit="10"/>
<path d="M219.441 0.129395L218.726 972.508" stroke="#F2ACBF" stroke-opacity="0.25" stroke-width="2.5" stroke-miterlimit="10"/>
<path d="M259.633 0.155762L258.918 972.535" stroke="#F2ACBF" stroke-opacity="0.25" stroke-width="2.5" stroke-miterlimit="10"/>
<path d="M299.826 0.181152L299.11 972.56" stroke="#F2ACBF" stroke-opacity="0.25" stroke-width="2.5" stroke-miterlimit="10"/>
<path d="M340.017 0.207275L339.301 972.586" stroke="#F2ACBF" stroke-opacity="0.25" stroke-width="2.5" stroke-miterlimit="10"/>
<path d="M380.209 0.232666L379.493 972.612" stroke="#F2ACBF" stroke-opacity="0.25" stroke-width="2.5" stroke-miterlimit="10"/>
<path d="M420.4 0.258789L419.685 972.638" stroke="#F2ACBF" stroke-opacity="0.25" stroke-width="2.5" stroke-miterlimit="10"/>
<path d="M460.594 0.285156L459.877 972.664" stroke="#F2ACBF" stroke-opacity="0.25" stroke-width="2.5" stroke-miterlimit="10"/>
<path d="M500.784 0.310547L500.068 972.69" stroke="#F2ACBF" stroke-opacity="0.25" stroke-width="2.5" stroke-miterlimit="10"/>
<path d="M540.976 0.33667L540.26 972.716" stroke="#F2ACBF" stroke-opacity="0.25" stroke-width="2.5" stroke-miterlimit="10"/>
<path d="M581.168 0.361816L580.453 972.741" stroke="#F2ACBF" stroke-opacity="0.25" stroke-width="2.5" stroke-miterlimit="10"/>
<path d="M621.359 0.388184L620.644 972.767" stroke="#F2ACBF" stroke-opacity="0.25" stroke-width="2.5" stroke-miterlimit="10"/>
<path d="M661.551 0.414551L660.836 972.794" stroke="#F2ACBF" stroke-opacity="0.25" stroke-width="2.5" stroke-miterlimit="10"/>
<path d="M701.743 0.439941L701.027 972.819" stroke="#F2ACBF" stroke-opacity="0.25" stroke-width="2.5" stroke-miterlimit="10"/>
<path d="M741.935 0.466064L741.219 972.845" stroke="#F2ACBF" stroke-opacity="0.25" stroke-width="2.5" stroke-miterlimit="10"/>
<path d="M782.127 0.491455L781.412 972.871" stroke="#F2ACBF" stroke-opacity="0.25" stroke-width="2.5" stroke-miterlimit="10"/>
<path d="M822.318 0.517822L821.603 972.897" stroke="#F2ACBF" stroke-opacity="0.25" stroke-width="2.5" stroke-miterlimit="10"/>
<path d="M862.511 0.543945L861.795 972.923" stroke="#F2ACBF" stroke-opacity="0.25" stroke-width="2.5" stroke-miterlimit="10"/>
<path d="M902.702 0.569092L901.986 972.948" stroke="#F2ACBF" stroke-opacity="0.25" stroke-width="2.5" stroke-miterlimit="10"/>
<path d="M942.894 0.595459L942.178 972.975" stroke="#F2ACBF" stroke-opacity="0.25" stroke-width="2.5" stroke-miterlimit="10"/>
<path d="M983.086 0.62085L982.371 973" stroke="#F2ACBF" stroke-opacity="0.25" stroke-width="2.5" stroke-miterlimit="10"/>
</svg>
